<svg width="150" height="81" viewBox="0 0 150 81" fill="none" xmlns="http://www.w3.org/2000/svg">
<path d="M108.652 57.3314C108.652 56.441 108.597 55.5739 108.488 54.7303C108.394 53.8711 108.199 53.1055 107.902 52.4338C107.605 51.762 107.183 51.223 106.636 50.8168C106.105 50.4107 105.402 50.2076 104.527 50.2076C103.699 50.2076 103.02 50.4185 102.489 50.8403C101.973 51.2465 101.567 51.7933 101.27 52.4806C100.973 53.168 100.762 53.9492 100.637 54.824C100.528 55.6989 100.473 56.5894 100.473 57.4955C100.473 58.5578 100.536 59.5264 100.661 60.4013C100.801 61.2605 101.028 61.9948 101.34 62.6041C101.653 63.2133 102.067 63.6898 102.582 64.0335C103.114 64.3616 103.778 64.5256 104.574 64.5256C105.465 64.5256 106.176 64.3069 106.707 63.8695C107.254 63.4321 107.668 62.8696 107.949 62.1823C108.23 61.4949 108.417 60.7215 108.511 59.8623C108.605 59.0031 108.652 58.1594 108.652 57.3314ZM104.574 48.9421C105.387 48.9421 106.09 49.0671 106.683 49.3171C107.277 49.5514 107.777 49.8795 108.183 50.3013C108.605 50.7231 108.941 51.2152 109.191 51.7776C109.456 52.34 109.659 52.9415 109.8 53.582C109.941 54.2069 110.034 54.8553 110.081 55.527C110.128 56.1988 110.152 56.855 110.152 57.4955C110.152 58.5891 110.073 59.6358 109.917 60.6356C109.761 61.6355 109.472 62.5181 109.05 63.2836C108.644 64.0491 108.082 64.6584 107.363 65.1115C106.644 65.5645 105.715 65.7911 104.574 65.7911C103.434 65.7911 102.497 65.5645 101.762 65.1115C101.044 64.6584 100.473 64.0491 100.052 63.2836C99.6454 62.5025 99.3642 61.6042 99.208 60.5888C99.0517 59.5577 98.9736 58.4719 98.9736 57.3314C98.9736 56.2847 99.0439 55.2615 99.1845 54.2616C99.3251 53.2618 99.5907 52.3713 99.9813 51.5902C100.387 50.7934 100.958 50.1529 101.692 49.6686C102.426 49.1843 103.387 48.9421 104.574 48.9421Z" fill="white"/>
<path d="M94.5762 52.9962C94.4043 52.1526 94.0606 51.4808 93.5451 50.9809C93.0296 50.4653 92.3265 50.2076 91.4361 50.2076C90.4206 50.2076 89.616 50.4497 89.0224 50.934C88.4443 51.4183 87.9991 52.0354 87.6866 52.7853C87.3742 53.5195 87.1633 54.3241 87.0539 55.199C86.9446 56.0738 86.8586 56.9018 86.7962 57.683C87.0305 57.3705 87.2726 57.0581 87.5226 56.7456C87.7882 56.4332 88.085 56.1598 88.4131 55.9254C88.7412 55.6755 89.1239 55.4802 89.5613 55.3396C89.9988 55.1833 90.5221 55.1052 91.1314 55.1052C92.803 55.1052 94.0919 55.5817 94.998 56.5347C95.9197 57.4721 96.3806 58.7687 96.3806 60.4247C96.3806 62.0963 95.9197 63.4086 94.998 64.3616C94.0763 65.3146 92.7718 65.7911 91.0845 65.7911C90.2565 65.7911 89.491 65.6583 88.788 65.3927C88.085 65.1115 87.4757 64.6584 86.9602 64.0335C86.4446 63.4086 86.0385 62.5962 85.7416 61.5964C85.4448 60.5809 85.2964 59.3468 85.2964 57.8939C85.2964 56.9096 85.3823 55.8942 85.5542 54.8475C85.726 53.7851 86.0306 52.8165 86.4681 51.9417C86.9211 51.0668 87.5304 50.3482 88.2959 49.7858C89.077 49.2233 90.0769 48.9421 91.2954 48.9421C92.6077 48.9421 93.7013 49.2858 94.5762 49.9732C95.451 50.6606 95.9666 51.6683 96.1228 52.9962H94.5762ZM91.0845 56.3707C90.5065 56.3707 89.9832 56.48 89.5145 56.6987C89.0614 56.9175 88.6709 57.2143 88.3428 57.5892C88.0303 57.9642 87.7882 58.4016 87.6163 58.9015C87.4445 59.3858 87.3586 59.9092 87.3586 60.4716C87.3586 60.9403 87.4211 61.4167 87.546 61.901C87.6866 62.3697 87.9054 62.7993 88.2022 63.1899C88.5146 63.5805 88.9052 63.9007 89.3739 64.1507C89.8426 64.4007 90.4206 64.5256 91.108 64.5256C91.811 64.5256 92.3968 64.4085 92.8655 64.1741C93.3498 63.9242 93.7404 63.6039 94.0372 63.2133C94.334 62.8072 94.5449 62.3619 94.6699 61.8776C94.8105 61.3777 94.8808 60.8778 94.8808 60.3778C94.8808 59.0968 94.5684 58.1126 93.9435 57.4252C93.3342 56.7222 92.3812 56.3707 91.0845 56.3707Z" fill="white"/>
<path d="M75.7894 56.2769C76.4924 56.2769 77.1329 56.2379 77.7109 56.1598C78.289 56.066 78.7811 55.902 79.1873 55.6676C79.6091 55.4177 79.9371 55.0896 80.1715 54.6834C80.4058 54.2772 80.523 53.7539 80.523 53.1134C80.523 52.5978 80.4293 52.1604 80.2418 51.8011C80.0543 51.4261 79.7965 51.1215 79.4685 50.8871C79.156 50.6528 78.7811 50.481 78.3436 50.3716C77.9218 50.2622 77.4766 50.2076 77.0079 50.2076C76.4767 50.2076 75.9924 50.2935 75.555 50.4653C75.1332 50.6372 74.7661 50.8871 74.4536 51.2152C74.1412 51.5277 73.899 51.9026 73.7272 52.34C73.5553 52.7619 73.4694 53.2305 73.4694 53.7461H71.9696C71.9696 52.9962 72.0946 52.3244 72.3446 51.7308C72.6102 51.1215 73.0163 50.5591 73.5631 50.0435C74.0787 49.5749 74.6567 49.278 75.2972 49.153C75.9534 49.0124 76.6252 48.9421 77.3126 48.9421C77.9687 48.9421 78.578 49.0281 79.1404 49.1999C79.7184 49.3561 80.2183 49.6061 80.6402 49.9498C81.062 50.2779 81.3978 50.6997 81.6478 51.2152C81.8978 51.7308 82.0228 52.3322 82.0228 53.0196C82.0228 53.8789 81.8275 54.6209 81.4369 55.2458C81.062 55.8707 80.4761 56.355 79.6794 56.6987C80.273 56.8862 80.7573 57.1362 81.1323 57.4486C81.5228 57.7454 81.8275 58.0813 82.0462 58.4563C82.2649 58.8156 82.4133 59.1983 82.4914 59.6045C82.5695 60.0107 82.6086 60.4013 82.6086 60.7762C82.6086 61.4636 82.4914 62.1041 82.2571 62.6978C82.0228 63.2915 81.6791 63.8148 81.226 64.2679C80.7729 64.7209 80.2105 65.088 79.5388 65.3693C78.8826 65.6348 78.1327 65.7754 77.2891 65.7911C76.3361 65.7911 75.5081 65.7051 74.8051 65.5333C74.1021 65.3614 73.5163 65.0802 73.0476 64.6897C72.5789 64.2835 72.2118 63.7601 71.9462 63.1196C71.6806 62.4635 71.501 61.6511 71.4072 60.6825H72.907C72.907 61.9479 73.2819 62.9087 74.0318 63.5648C74.7973 64.2054 75.7894 64.5256 77.0079 64.5256C77.6016 64.5256 78.1562 64.4241 78.6717 64.221C79.1873 64.0179 79.6247 63.7445 79.984 63.4008C80.3589 63.0571 80.6402 62.6587 80.8276 62.2057C81.0307 61.7526 81.1245 61.284 81.1088 60.7997C81.0776 60.1279 80.9214 59.5733 80.6402 59.1359C80.3589 58.6828 79.9762 58.3313 79.4919 58.0813C79.0232 57.8157 78.4686 57.6439 77.8281 57.5658C77.1876 57.4721 76.508 57.4486 75.7894 57.4955V56.2769Z" fill="white"/>
<path d="M10.8315 29.7662H11.8746V32.6545C11.9548 32.1731 12.1955 31.772 12.4362 31.3708C12.6769 30.9696 13.0781 30.6487 13.4792 30.3278C13.8804 30.0069 14.2816 29.7662 14.8432 29.6057C15.3246 29.4452 15.806 29.365 16.3676 29.365C16.9292 29.365 17.6513 29.4452 18.1327 29.6057C18.6141 29.7662 19.0153 30.0069 19.4165 30.3278C19.7374 30.6487 20.0583 30.9697 20.2188 31.2906C20.4595 31.6115 20.5397 32.0127 20.62 32.4138C21.0211 31.451 21.5828 30.6487 22.3049 30.1673C23.027 29.6859 23.9095 29.4452 25.113 29.4452C26.3165 29.4452 26.3165 29.5255 26.8781 29.7662C27.4398 29.9266 27.9212 30.2476 28.3223 30.6487C28.7235 31.0499 29.0444 31.5313 29.2851 32.1731C29.5258 32.815 29.6061 33.5371 29.6061 34.3394V44.0476H28.563V34.3394C28.563 33.4569 28.4026 32.7348 28.1619 32.2534C27.9212 31.772 27.52 31.3708 27.1991 31.0499C26.7979 30.8092 26.477 30.6487 26.0758 30.5685C25.6746 30.5685 25.4339 30.4883 25.1932 30.4883C24.5514 30.4883 23.9898 30.5685 23.4281 30.8092C22.8665 31.0499 22.3851 31.3708 21.9839 31.772C21.5828 32.2534 21.2618 32.7348 21.0211 33.3766C20.7804 34.0185 20.7002 34.7406 20.7002 35.6232V44.0476H19.6572V34.3394C19.6572 33.4569 19.4967 32.7348 19.256 32.2534C19.0153 31.6917 18.6944 31.3708 18.2932 31.0499C17.9723 30.8092 17.5711 30.6487 17.1699 30.5685C16.7688 30.5685 16.5281 30.4883 16.2874 30.4883C15.806 30.4883 15.2444 30.5685 14.763 30.8092C14.2013 31.0499 13.7199 31.2906 13.3188 31.772C12.8374 32.1731 12.5164 32.7348 12.2757 33.3766C12.035 34.0185 11.8746 34.8208 11.8746 35.7034V44.1279H10.8315V29.9266V29.7662Z" fill="#54C5D3"/>
<path d="M29.9276 44.2885H28.3229V34.2593C28.3229 33.3768 28.1625 32.7349 27.9218 32.2535C27.6811 31.7721 27.3602 31.4512 27.0392 31.2105C26.7183 30.9698 26.3974 30.8093 25.9962 30.7291C25.6753 30.7291 25.3543 30.6488 25.1939 30.6488C24.552 30.6488 23.9904 30.7291 23.509 30.9698C23.0276 31.2105 22.5462 31.4512 22.2252 31.8523C21.8241 32.2535 21.5834 32.8151 21.3427 33.3768C21.102 34.0186 21.0218 34.7407 21.0218 35.5431V44.2082H19.4171V34.1791C19.4171 33.3768 19.2566 32.6547 19.0159 32.1733C18.7752 31.6919 18.4543 31.3709 18.1334 31.1302C17.8124 30.8895 17.4915 30.7291 17.1706 30.6488C16.8496 30.6488 16.5287 30.5686 16.3682 30.5686C15.8868 30.5686 15.4054 30.6488 14.924 30.8895C14.4426 31.05 13.9612 31.3709 13.5601 31.7721C13.1589 32.1733 12.838 32.6547 12.5171 33.2965C12.2764 33.9384 12.1159 34.6605 12.1159 35.5431V44.2082H10.5112V29.4454H12.1159V31.3709C12.1159 31.3709 12.1159 31.2907 12.1961 31.2105C12.5171 30.8093 12.838 30.4081 13.2392 30.0872C13.6403 29.7663 14.1217 29.5256 14.6833 29.3651C15.1647 29.2047 15.7264 29.1244 16.288 29.1244C16.8496 29.1244 17.652 29.2047 18.1334 29.3651C18.695 29.5256 19.0962 29.7663 19.4973 30.0872C19.8985 30.4081 20.1392 30.7291 20.3799 31.1302C20.4601 31.2907 20.5404 31.4512 20.6206 31.6116C21.0218 30.8895 21.5031 30.2477 22.145 29.8465C22.8671 29.2849 23.9101 29.0442 25.1136 29.0442C26.3171 29.0442 26.3974 29.1244 26.959 29.3651C27.5206 29.6058 28.0823 29.9268 28.4834 30.3279C28.8846 30.7291 29.2055 31.2907 29.4462 31.9326C29.6869 32.5744 29.7671 33.2965 29.7671 34.1791V44.128L29.9276 44.2885ZM28.8846 43.6466H29.366V34.2593C29.366 33.457 29.2857 32.8151 29.045 32.1733C28.8043 31.6116 28.5636 31.1302 28.1625 30.8093C27.7613 30.4082 27.3602 30.1675 26.8788 30.007C26.3974 29.8465 25.8357 29.7663 25.1939 29.7663C24.0706 29.7663 23.188 30.007 22.5462 30.4884C21.9043 30.9698 21.3427 31.6919 20.9415 32.5744V32.7349H20.4601V32.4942C20.2997 32.1733 20.1392 31.8523 19.9787 31.5314C19.8183 31.2105 19.5776 30.8895 19.2566 30.6488C18.9357 30.4081 18.5345 30.1675 18.0531 30.007C17.5717 29.8465 17.0101 29.7663 16.3682 29.7663C15.7264 29.7663 15.4054 29.7663 14.924 30.007C14.4426 30.1675 14.0415 30.4081 13.6403 30.6488C13.2392 30.8895 12.9182 31.2105 12.6775 31.6116C12.4368 31.9326 12.2764 32.2535 12.1961 32.6547C12.4368 32.1733 12.7578 31.7721 13.0787 31.4512C13.5601 30.9698 14.0415 30.6488 14.6031 30.4884C15.1647 30.2477 15.7264 30.1674 16.288 30.1674C16.8496 30.1674 16.8496 30.1675 17.2508 30.2477C17.652 30.3279 18.0531 30.4884 18.4543 30.8093C18.8555 31.1302 19.1764 31.5314 19.4973 32.093C19.8183 32.6547 19.8985 33.3768 19.8985 34.3396V43.7268H20.3799V35.6233C20.3799 34.7407 20.4601 33.9384 20.7008 33.2965C20.9415 32.5744 21.2624 32.0128 21.6636 31.5314C22.0648 31.05 22.6264 30.7291 23.188 30.4884C23.7497 30.2477 24.3915 30.1674 25.1136 30.1674C25.8357 30.1674 25.595 30.1675 25.9962 30.2477C26.3974 30.2477 26.7985 30.4884 27.2799 30.8093C27.6811 31.1302 28.0823 31.5314 28.3229 32.093C28.6439 32.6547 28.8043 33.3768 28.8043 34.3396V43.7268L28.8846 43.6466ZM11.1531 43.6466H11.6345V35.5431C11.6345 34.5803 11.795 33.7779 12.0357 33.0558C12.0357 33.0558 12.0357 32.9756 12.0357 32.8954H11.5543V32.5744V30.007H11.0729V43.5664L11.1531 43.6466Z" fill="#54C5D3"/>
<path d="M39.7158 24.2305H40.9193V33.1363H53.5159V24.2305H54.7194V43.9678H53.5159V34.2596H40.9193V43.9678H39.7158V24.2305Z" fill="#96C94A"/>
<path d="M55.0397 44.2887H53.2745V34.5805H41.3198V44.2887H39.5547V23.9897H41.3198V32.8956H53.2745V23.9897H55.0397V44.2887ZM53.8362 43.6468H54.478V24.5514H53.8362V33.4572H40.678V24.5514H40.0361V43.6468H40.678V33.9386H53.8362V43.6468Z" fill="#96C94A"/>
<path d="M58.4099 36.9874V37.1478C58.4099 37.9502 58.4901 38.7525 58.7308 39.5548C58.9715 40.2769 59.2924 40.999 59.6936 41.5606C60.0948 42.1223 60.6564 42.6037 61.2983 42.9246C61.9401 43.2455 62.7425 43.406 63.5448 43.406C64.989 43.406 66.1122 43.0048 66.9146 42.2827C67.7169 41.5606 68.2785 40.5176 68.5995 39.1537H69.6425C69.3216 40.8385 68.6797 42.042 67.6367 42.9246C66.5936 43.8072 65.2297 44.2886 63.5448 44.2886C61.8599 44.2886 61.6192 44.1281 60.8169 43.7269C60.0145 43.3258 59.3727 42.8444 58.8913 42.2025C58.3296 41.5606 58.0087 40.7583 57.6878 39.8758C57.4471 38.9932 57.2866 38.0304 57.2866 36.9874C57.2866 35.9443 57.4471 35.0618 57.6878 34.099C57.9285 33.2164 58.3296 32.4141 58.8913 31.692C59.4529 30.9699 60.0948 30.4885 60.8971 30.0071C61.6994 29.6059 62.6622 29.3652 63.7053 29.3652C64.7483 29.3652 65.5506 29.5257 66.3529 29.9269C67.1553 30.328 67.7169 30.8094 68.2785 31.4513C68.7599 32.0932 69.1611 32.8153 69.482 33.6978C69.7227 34.5001 69.8832 35.4629 69.8832 36.4257C69.8832 37.3885 69.8832 36.5862 69.8832 36.7467C69.8832 36.8269 69.8832 36.9874 69.8832 37.0676H58.4099V36.9874ZM68.8402 36.1048C68.8402 35.3025 68.6797 34.5804 68.439 33.9385C68.1983 33.2967 67.8774 32.6548 67.4762 32.0932C67.075 31.5315 66.5134 31.1304 65.8715 30.8094C65.2297 30.4885 64.5878 30.328 63.7855 30.328C62.9832 30.328 62.1808 30.4885 61.539 30.8094C60.8971 31.1304 60.3355 31.5315 59.9343 32.0932C59.4529 32.6548 59.132 33.2164 58.8913 33.9385C58.6506 34.6606 58.4901 35.3827 58.4099 36.1048H68.8402Z" fill="#96C94A"/>
<path d="M63.6245 44.6096C62.5013 44.6096 61.5385 44.4491 60.7361 44.0479C59.9338 43.6468 59.2117 43.0851 58.6501 42.4433C58.0884 41.7212 57.6873 40.9188 57.4466 40.0363C57.2059 39.1537 57.0454 38.1107 57.0454 37.0677C57.0454 36.0246 57.2059 35.0618 57.4466 34.099C57.6873 33.1362 58.1687 32.3339 58.7303 31.6118C59.2919 30.8897 60.014 30.3281 60.8164 29.8467C61.6187 29.4455 62.6617 29.2048 63.785 29.2048C64.9082 29.2048 65.7106 29.3653 66.5129 29.7665C67.3152 30.1676 67.9571 30.649 68.5187 31.3711C69.0804 32.013 69.4815 32.8153 69.7222 33.6979C69.9629 34.5804 70.1234 35.463 70.1234 36.506C70.1234 37.5491 70.1234 36.7467 70.1234 36.827C70.1234 36.9072 70.1234 36.9874 70.1234 37.0677V37.3886H58.6501C58.6501 38.1107 58.7303 38.8328 58.971 39.5549C59.2117 40.277 59.5326 40.9188 59.9338 41.4805C60.335 42.0421 60.8164 42.4433 61.4582 42.7642C62.1001 43.0851 62.8222 43.2456 63.6245 43.2456C64.9885 43.2456 66.0315 42.9247 66.8338 42.2026C67.6362 41.4805 68.1978 40.5177 68.4385 39.234V38.9933H70.1234V39.3142C69.7222 40.9991 69.0001 42.363 67.9571 43.3258C66.8338 44.2886 65.3896 44.6898 63.6245 44.6898V44.6096ZM63.785 29.7665C62.742 29.7665 61.8594 29.9269 61.0571 30.3281C60.335 30.7293 59.6931 31.2107 59.1315 31.9328C58.6501 32.5746 58.2489 33.3769 58.0082 34.2595C57.7675 35.1421 57.607 36.1049 57.607 37.0677C57.607 38.0305 57.7675 38.9933 58.0082 39.8758C58.2489 40.7584 58.6501 41.4805 59.1315 42.1223C59.6129 42.7642 60.2547 43.2456 60.9768 43.5665C61.6989 43.8875 62.5815 44.1282 63.6245 44.1282C65.2292 44.1282 66.5931 43.727 67.5559 42.8444C68.4385 42.0421 69.0804 40.9991 69.4013 39.5549H68.9199C68.599 40.8386 67.9571 41.8816 67.1548 42.6037C66.2722 43.4061 65.0687 43.8072 63.5443 43.8072C62.0199 43.8072 61.8594 43.6468 61.1373 43.2456C60.4152 42.9247 59.8536 42.4433 59.3722 41.8014C58.8908 41.2398 58.5698 40.5177 58.3291 39.7154C58.0884 38.913 58.0082 38.1107 58.0082 37.2281V36.7467H69.4815C69.4815 36.6665 69.4815 36.506 69.4815 36.4258C69.4815 35.5432 69.3211 34.6607 69.0804 33.8583C68.8397 33.056 68.4385 32.3339 67.9571 31.7723C67.4757 31.2107 66.8338 30.7293 66.1117 30.3281C65.3896 30.0072 64.5873 29.7665 63.6245 29.7665H63.785ZM69.1606 36.4258H58.1687V36.1049C58.2489 35.3828 58.4094 34.5804 58.6501 33.8583C58.8908 33.1362 59.2919 32.4944 59.6931 31.9328C60.1745 31.3711 60.7361 30.8897 61.4582 30.5688C62.1803 30.2479 62.9024 30.0874 63.8652 30.0874C64.828 30.0874 65.4699 30.2479 66.1117 30.5688C66.7536 30.8897 67.3152 31.3711 67.7966 31.9328C68.278 32.4944 68.599 33.1362 68.8397 33.8583C69.0804 34.5804 69.2408 35.3025 69.2408 36.1049V36.4258H69.1606ZM58.8105 35.7839H68.599C68.599 35.1421 68.4385 34.5804 68.278 33.9386C68.0373 33.2967 67.7966 32.7351 67.3152 32.2537C66.9141 31.7723 66.4327 31.3711 65.871 31.0502C65.3094 30.7293 64.6675 30.649 63.8652 30.649C63.0629 30.649 62.3408 30.8095 61.7792 31.1304C61.1373 31.4514 60.6559 31.8525 60.2547 32.3339C59.8536 32.8153 59.5326 33.3769 59.2919 34.099C59.1315 34.6607 58.971 35.2223 58.8908 35.8642L58.8105 35.7839Z" fill="#96C94A"/>
<path d="M81.7575 41.1595C81.597 41.5607 81.3563 41.9618 81.0354 42.363C80.7145 42.7642 80.3133 43.0851 79.9121 43.406C79.4307 43.727 78.9493 43.9677 78.3877 44.1281C77.8261 44.2886 77.1842 44.3688 76.5423 44.3688C75.0179 44.3688 73.8947 44.0479 73.0121 43.406C72.2098 42.7642 71.8086 41.7211 71.8086 40.3572C71.8086 38.9932 71.9691 38.8327 72.29 38.3513C72.6109 37.7897 73.0121 37.3886 73.5737 37.1479C74.0551 36.8269 74.6168 36.6665 75.2586 36.506C75.9005 36.3455 76.4621 36.2653 77.0237 36.2653L78.6284 36.1048C79.3505 36.1048 79.9924 35.9444 80.3935 35.8641C80.7947 35.7839 81.1156 35.5432 81.3563 35.3827C81.597 35.142 81.6773 34.9013 81.7575 34.5804C81.7575 34.2595 81.8377 33.8583 81.8377 33.3769C81.8377 32.8955 81.8377 32.6548 81.597 32.3339C81.4365 32.0129 81.1959 31.692 80.8749 31.4513C80.554 31.2106 80.1528 30.9699 79.6714 30.8095C79.19 30.649 78.5482 30.5688 77.8261 30.5688C76.5423 30.5688 75.4993 30.8897 74.7772 31.5315C73.9749 32.1734 73.5737 33.1362 73.4935 34.3397H72.4505C72.4505 32.8153 73.0121 31.6118 73.9749 30.8095C74.9377 30.0071 76.2214 29.606 77.9063 29.606C79.5912 29.606 80.8749 29.9269 81.6773 30.649C82.4796 31.2908 82.8807 32.1734 82.8807 33.2967V41.5607C82.8807 41.8014 82.8807 41.9618 82.8807 42.2025C82.8807 42.4432 82.8807 42.6037 82.961 42.7642C82.961 42.9246 83.1214 43.0851 83.2017 43.1653C83.3621 43.2456 83.5226 43.3258 83.7633 43.3258C84.004 43.3258 84.2447 43.3258 84.5656 43.2456V44.1281C84.3249 44.1281 84.004 44.2084 83.6831 44.2084C83.2819 44.2084 82.961 44.2084 82.64 44.0479C82.3993 43.9677 82.2389 43.8072 82.0784 43.5665C81.918 43.406 81.8377 43.1653 81.8377 42.9246C81.8377 42.6839 81.8377 42.4432 81.8377 42.1223V41.4002L81.7575 41.1595ZM81.7575 35.8641C81.5168 36.1851 81.1156 36.4258 80.554 36.506C79.9924 36.5862 79.4307 36.6665 78.7889 36.7467L77.0237 36.9072C76.5423 36.9072 75.9807 37.0676 75.4993 37.1479C75.0179 37.2281 74.5365 37.3886 74.1354 37.6293C73.7342 37.87 73.4133 38.1909 73.0923 38.592C72.8516 38.9932 72.6912 39.5548 72.6912 40.1967C72.6912 41.2397 73.0121 42.0421 73.654 42.5235C74.2958 43.0049 75.2586 43.2456 76.3819 43.2456C77.5051 43.2456 78.5482 43.0049 79.19 42.6037C79.9121 42.2025 80.3935 41.6409 80.7947 41.0793C81.1958 40.5176 81.4365 39.956 81.5168 39.4746C81.597 38.913 81.6773 38.592 81.6773 38.4316V35.7839L81.7575 35.8641Z" fill="#96C94A"/>
<path d="M76.4619 44.6094C74.8572 44.6094 73.6537 44.2885 72.7712 43.5664C71.8886 42.8443 71.4072 41.8012 71.4072 40.2768C71.4072 38.7524 71.5677 38.6721 71.9689 38.1105C72.2898 37.5489 72.7712 37.0675 73.3328 36.7466C73.8944 36.4256 74.4561 36.1849 75.0979 36.0245C75.7398 35.864 76.3014 35.7838 76.9433 35.7035L78.548 35.5431C79.2701 35.5431 79.8317 35.3826 80.3131 35.3024C80.7142 35.2221 80.9549 35.0617 81.1956 34.9012C81.3561 34.7407 81.5166 34.5 81.5166 34.2593C81.5166 33.9384 81.5166 33.5372 81.5166 33.0558C81.5166 32.5744 81.5166 32.414 81.3561 32.093C81.1957 31.7721 81.0352 31.5314 80.7142 31.2907C80.4736 31.05 80.0724 30.8895 79.591 30.7291C79.1096 30.5686 78.548 30.4884 77.8259 30.4884C76.6224 30.4884 75.6596 30.8093 74.9375 31.3709C74.2154 31.9326 73.8142 32.8151 73.734 34.0186V34.2593H72.0491V33.9384C72.1293 32.3337 72.691 31.05 73.6538 30.2477C74.6165 29.4454 76.0607 29.0442 77.8259 29.0442C79.591 29.0442 80.955 29.4454 81.7573 30.0872C82.6398 30.8093 83.041 31.7721 83.041 32.9756V41.2396C83.041 41.4001 83.041 41.6408 83.041 41.8012C83.041 41.9617 83.041 42.1222 83.1212 42.2826C83.1212 42.3629 83.2015 42.4431 83.2817 42.5233C83.4422 42.6036 83.7631 42.6036 84.405 42.5233H84.7259V43.8873H84.4852C84.1643 44.0478 83.8433 44.0478 83.5224 44.0478C83.041 44.0478 82.7201 44.0478 82.3991 43.8873C82.0782 43.7268 81.8375 43.5664 81.677 43.3257C81.5166 43.085 81.4363 42.8443 81.3561 42.5233C81.3561 42.3629 81.3561 42.1222 81.3561 41.9617C81.3561 42.0419 81.1956 42.2024 81.1154 42.2826C80.7945 42.6838 80.3933 43.0047 79.9119 43.3257C79.4305 43.6466 78.8689 43.8873 78.3073 44.0478C77.7456 44.2082 77.0235 44.2885 76.3817 44.2885L76.4619 44.6094ZM77.8259 30.0872C78.548 30.0872 79.1898 30.0872 79.7515 30.3279C80.3131 30.4884 80.7143 30.7291 81.0352 30.9698C81.3561 31.2907 81.677 31.6116 81.8375 31.9326C81.998 32.3337 82.0782 32.7349 82.0782 33.1361C82.0782 33.5372 82.0782 34.0989 81.998 34.4198C81.998 34.821 81.7573 35.1419 81.5166 35.3826C81.2759 35.6233 80.8747 35.7838 80.3933 35.9442C79.9119 36.1047 79.3503 36.1849 78.548 36.1849L76.9433 36.3454C76.3817 36.3454 75.82 36.5059 75.1782 36.5861C74.6165 36.7466 74.0549 36.907 73.5735 37.228C73.0921 37.4687 72.691 37.8698 72.4503 38.3512C72.1293 38.8326 71.9689 39.4745 71.9689 40.1966C71.9689 41.4803 72.37 42.3629 73.0921 43.0047C73.8944 43.6466 75.0177 43.8873 76.3817 43.8873C77.7456 43.8873 77.6654 43.8873 78.1468 43.6466C78.7084 43.4861 79.1898 43.2454 79.591 43.0047C79.9922 42.764 80.3933 42.4431 80.634 42.0419C80.955 41.721 81.1154 41.3198 81.2759 40.9187V40.7582H81.8375V41.0791V41.8012C81.8375 42.0419 81.8375 42.3629 81.8375 42.5233C81.8375 42.764 81.9177 42.9245 82.0782 43.085C82.1584 43.2454 82.3189 43.3257 82.5596 43.4059C82.8805 43.5664 83.4422 43.5664 84.0038 43.4861V43.1652C83.3619 43.1652 83.041 43.1652 82.8003 43.0047C82.6398 42.8443 82.4794 42.6838 82.3991 42.4431C82.3991 42.2826 82.3189 42.0419 82.3189 41.8012C82.3189 41.5605 82.3189 41.4001 82.3189 41.1594V32.8954C82.3189 31.8523 81.998 31.1302 81.2759 30.4884C80.5538 29.8465 79.3503 29.5256 77.7456 29.5256C76.141 29.5256 74.8572 29.9268 73.9747 30.6488C73.1723 31.2907 72.691 32.3337 72.6107 33.6175H73.0921C73.2526 32.414 73.6538 31.4512 74.4561 30.8093C75.2584 30.1675 76.3817 29.8465 77.7456 29.8465L77.8259 30.0872ZM76.4619 43.6466C75.2584 43.6466 74.2956 43.4059 73.5735 42.8443C72.8514 42.2826 72.4503 41.4001 72.4503 40.2768C72.4503 39.1535 72.6107 38.9931 72.8514 38.5117C73.1724 38.0303 73.4933 37.7093 73.9747 37.4687C74.3758 37.228 74.9375 37.0675 75.4189 36.907C75.9003 36.8268 76.4619 36.7466 77.0235 36.6663L78.7887 36.5059C79.4305 36.5059 79.9922 36.3454 80.4736 36.2652C80.955 36.1849 81.2759 36.0245 81.5166 35.7035L82.0782 35.0617V38.5117C82.0782 38.7524 82.0782 39.0733 81.9177 39.6349C81.8375 40.1966 81.5968 40.7582 81.1956 41.4001C80.7945 41.9617 80.2329 42.5233 79.5108 43.0047C78.7887 43.4861 77.7456 43.7268 76.5421 43.7268L76.4619 43.6466ZM81.4363 36.5059C81.1956 36.6663 80.955 36.7466 80.634 36.8268C80.0724 36.907 79.5108 36.9873 78.8689 37.0675L77.1038 37.228C76.6224 37.228 76.0607 37.3884 75.5793 37.4687C75.0979 37.5489 74.6968 37.7093 74.2956 37.95C73.8944 38.1907 73.6537 38.4314 73.4131 38.8326C73.1724 39.2338 73.0921 39.7152 73.0921 40.2768C73.0921 41.2396 73.413 41.9617 73.9747 42.3629C74.6165 42.8443 75.4189 43.085 76.5421 43.085C77.6654 43.085 78.548 42.8443 79.1898 42.4431C79.8317 42.0419 80.3933 41.5605 80.7142 41.0791C81.0352 40.5175 81.2759 40.0361 81.3561 39.5547C81.5166 38.9128 81.5166 38.6721 81.5166 38.5117V36.5059H81.4363Z" fill="#96C94A"/>
<path d="M96.0393 30.649H92.9103V40.5177C92.9103 41.0793 92.9103 41.5607 93.0707 41.8816C93.2312 42.2026 93.3917 42.4433 93.6324 42.6037C93.8731 42.7642 94.194 42.8444 94.5952 42.9247C94.9963 42.9247 95.3975 42.9247 95.8789 42.9247V43.8072C95.3173 43.8072 94.8359 43.8072 94.3545 43.8072C93.8731 43.8072 93.3917 43.6468 92.9905 43.4061C92.5893 43.1654 92.2684 42.8444 92.0277 42.363C91.787 41.8816 91.7068 41.2398 91.7068 40.4374V30.5688H89.0591V29.6862H91.7068V24.1501H92.7498V29.6862H95.8789V30.5688L96.0393 30.649Z" fill="#96C94A"/>
<path d="M95.2368 44.2886C94.9159 44.2886 94.6752 44.2886 94.3543 44.2886C93.7926 44.2886 93.3113 44.0479 92.9101 43.8072C92.5089 43.5665 92.1078 43.1653 91.8671 42.6839C91.6264 42.2025 91.5461 41.4804 91.5461 40.5979V30.9699H88.8984V29.4455H91.5461V23.9094H93.1508V29.4455H96.2799V30.9699H93.1508V40.5979C93.1508 41.1595 93.1508 41.5607 93.3113 41.8816C93.3915 42.1223 93.5519 42.363 93.7926 42.5235C94.0333 42.6839 94.274 42.7642 94.595 42.7642C94.9961 42.7642 95.3973 42.7642 95.8787 42.7642H96.1996V44.2084H95.9589C95.7182 44.2084 95.4775 44.2084 95.2368 44.2084V44.2886ZM89.5403 30.4083H92.188V40.5979C92.188 41.4002 92.188 41.9618 92.4287 42.363C92.6694 42.7642 92.9101 43.0851 93.231 43.2456C93.5519 43.4863 93.9531 43.5665 94.4345 43.6467C94.8357 43.6467 95.2368 43.6467 95.638 43.6467V43.3258C95.2368 43.3258 94.9159 43.3258 94.595 43.3258C94.1938 43.3258 93.7926 43.1653 93.4717 42.9246C93.1508 42.6839 92.9101 42.4432 92.7496 42.0421C92.5892 41.6409 92.5089 41.1595 92.5089 40.5979V30.4083H95.638V30.0874H92.5089V24.5513H92.0275V30.0874H89.3798V30.4083H89.5403Z" fill="#96C94A"/>
<path d="M86.9727 30.6491V40.598C86.9727 41.1596 86.9727 41.641 87.1332 41.962C87.2936 42.2829 87.4541 42.5236 87.6948 42.7643C87.9355 42.9247 88.2564 43.0852 88.6576 43.0852C89.0587 43.0852 89.4599 43.0852 89.9413 43.0852V43.9678C89.3797 43.9678 88.8983 43.9678 88.3366 43.9678C87.8553 43.9678 87.3739 43.8073 86.9727 43.5666C86.5715 43.3259 86.2506 43.005 86.0099 42.5236C85.7692 42.0422 85.689 41.4003 85.689 40.598V30.6491M85.9297 30.97V24.2305H86.9727V30.97" fill="#96C94A"/>
<path d="M89.2995 44.2887C88.9786 44.2887 88.7378 44.2887 88.4169 44.2887C87.8553 44.2887 87.3739 44.048 86.9727 43.8073C86.5716 43.5666 86.1704 43.1654 85.9297 42.684C85.689 42.2026 85.5285 41.4805 85.6088 40.598V23.9897H87.2134V40.598C87.2134 41.1596 87.2134 41.5608 87.3739 41.8817C87.4541 42.1224 87.6146 42.3631 87.8553 42.5236C88.096 42.684 88.3367 42.7643 88.6576 42.7643C89.0588 42.7643 89.4599 42.7643 89.9413 42.7643H90.2623V44.2887H90.0216C89.7809 44.2887 89.5402 44.2887 89.2995 44.2887ZM86.1704 30.6491V40.598C86.1704 41.4003 86.1704 41.9619 86.4111 42.3631C86.6518 42.7643 86.8925 43.0852 87.2134 43.2457C87.5344 43.4864 87.9355 43.5666 88.4169 43.6468C88.8181 43.6468 89.2193 43.6468 89.7006 43.6468V43.3259C89.2995 43.3259 88.9785 43.3259 88.6576 43.3259C88.2565 43.3259 87.8553 43.1654 87.5344 42.9247C87.2134 42.684 86.9727 42.4433 86.8123 42.0422C86.6518 41.641 86.5716 41.1596 86.5716 40.598V24.6316H86.0902V30.6491H86.1704Z" fill="#96C94A"/>
<path d="M34.5005 30.6491V40.598C34.5005 41.1596 34.5005 41.641 34.661 41.962C34.8215 42.2829 34.9819 42.5236 35.2226 42.7643C35.4633 42.9247 35.7842 43.0852 36.1854 43.0852C36.5866 43.0852 36.9877 43.0852 37.4691 43.0852V43.9678C36.9075 43.9678 36.4261 43.9678 35.8645 43.9678C35.3831 43.9678 34.9017 43.8073 34.5005 43.5666C34.0994 43.3259 33.7784 43.005 33.5377 42.5236C33.297 42.0422 33.2168 41.4003 33.2168 40.598V30.6491M33.4575 30.97V24.2305H34.5005V30.97" fill="#54C5D3"/>
<path d="M36.8273 44.2887C36.5064 44.2887 36.2657 44.2887 35.9447 44.2887C35.3831 44.2887 34.9017 44.048 34.5006 43.8073C34.0994 43.5666 33.6982 43.1654 33.4575 42.684C33.2168 42.2026 33.0564 41.4805 33.1366 40.598V23.9897H34.7413V40.598C34.7413 41.1596 34.7413 41.5608 34.9017 41.8817C34.982 42.1224 35.1424 42.3631 35.3831 42.5236C35.6238 42.684 35.8645 42.7643 36.1854 42.7643C36.5866 42.7643 36.9878 42.7643 37.4692 42.7643H37.7901V44.2887H37.5494C37.3087 44.2887 37.068 44.2887 36.8273 44.2887ZM33.6982 30.6491V40.598C33.6982 41.4003 33.6982 41.9619 33.9389 42.3631C34.1796 42.7643 34.4203 43.0852 34.7413 43.2457C35.0622 43.4864 35.4633 43.5666 35.9447 43.6468C36.3459 43.6468 36.7471 43.6468 37.2285 43.6468V43.3259C36.8273 43.3259 36.5064 43.3259 36.1854 43.3259C35.7843 43.3259 35.3831 43.1654 35.0622 42.9247C34.7413 42.684 34.5006 42.4433 34.3401 42.0422C34.1796 41.641 34.0994 41.1596 34.0994 40.598V24.6316H33.618V30.6491H33.6982Z" fill="#54C5D3"/>
<path d="M99.008 24.2304V32.8153C99.1685 32.2537 99.4894 31.7723 99.8104 31.3711C100.131 30.9699 100.532 30.5688 101.014 30.3281C101.495 30.0072 101.977 29.8467 102.458 29.6862C103.02 29.5258 103.501 29.4455 104.063 29.4455C104.865 29.4455 105.587 29.5258 106.149 29.7665C106.71 30.0072 107.192 30.2479 107.593 30.5688C107.994 30.8897 108.235 31.2909 108.476 31.692C108.716 32.0932 108.877 32.4944 108.957 32.9758C109.037 33.3769 109.117 33.7781 109.117 34.1793C109.117 34.5804 109.117 34.9014 109.117 35.2223V43.9677H108.074V34.9816C108.074 34.6607 108.074 34.1793 107.994 33.6176C107.994 33.056 107.753 32.5746 107.513 32.0932C107.272 31.6118 106.871 31.2106 106.309 30.8095C105.748 30.4886 105.025 30.2479 104.063 30.2479C103.1 30.2479 102.538 30.4083 101.896 30.7292C101.255 31.0502 100.773 31.4513 100.292 31.9327C99.8104 32.4944 99.4894 33.056 99.2487 33.7781C99.008 34.5002 98.9278 35.3025 98.9278 36.1851V43.8875H97.8848V24.1501H98.9278L99.008 24.2304Z" fill="#96C94A"/>
<path d="M109.438 44.2887H107.833V35.0619C107.833 34.741 107.833 34.2596 107.753 33.7782C107.753 33.2968 107.512 32.8154 107.272 32.334C107.031 31.9328 106.63 31.5316 106.148 31.2107C105.667 30.8898 104.945 30.7293 104.062 30.7293C103.18 30.7293 102.618 30.8898 102.056 31.1305C101.495 31.3712 100.933 31.7723 100.532 32.2537C100.131 32.7351 99.8098 33.377 99.5691 34.0189C99.3284 34.741 99.2482 35.4631 99.2482 36.3456V44.2887H97.6436V23.9897H99.2482V31.6921C99.3284 31.5316 99.4889 31.3712 99.5691 31.2909C99.8901 30.8898 100.371 30.4886 100.853 30.1677C101.334 29.8468 101.816 29.6061 102.377 29.4456C102.939 29.2851 103.501 29.2049 104.062 29.2049C104.945 29.2049 105.667 29.2851 106.309 29.5258C106.951 29.7665 107.432 30.0072 107.833 30.4084C108.234 30.7293 108.555 31.1305 108.796 31.6119C109.037 32.013 109.197 32.4944 109.277 32.9758C109.358 33.377 109.438 33.8584 109.438 34.2596C109.438 34.6607 109.438 34.9817 109.438 35.3026V44.3689V44.2887ZM108.395 43.6468H108.876V35.1421C108.876 34.8212 108.876 34.5003 108.876 34.0991C108.876 33.6979 108.876 33.2968 108.716 32.8956C108.635 32.4944 108.475 32.0933 108.315 31.6921C108.154 31.2909 107.833 30.97 107.512 30.6491C107.191 30.3282 106.71 30.0875 106.228 29.927C105.667 29.7665 105.025 29.6061 104.223 29.6061C103.42 29.6061 103.18 29.6061 102.698 29.8468C102.217 30.0072 101.735 30.1677 101.334 30.4886C100.933 30.7293 100.532 31.1305 100.211 31.4514C99.8901 31.8526 99.6494 32.2537 99.4889 32.8154V32.9758H98.9273V32.6549V24.3909H98.4459V43.4864H98.9273V36.1049C98.9273 35.2224 99.0877 34.42 99.2482 33.6177C99.4889 32.8956 99.8098 32.1735 100.291 31.6119C100.773 31.0503 101.334 30.6491 101.976 30.3282C102.618 30.0072 103.42 29.8468 104.223 29.8468C105.025 29.8468 106.068 30.0072 106.63 30.4084C107.191 30.8096 107.673 31.2107 107.913 31.7723C108.234 32.2537 108.395 32.8154 108.395 33.377C108.395 33.9386 108.475 34.3398 108.475 34.741V43.4061L108.395 43.6468Z" fill="#96C94A"/>
<g style="mix-blend-mode:multiply">
<path d="M131.02 27.921C131.02 27.921 131.341 27.6001 131.743 27.1989L133.989 24.9524C134.39 24.5512 134.711 23.7489 134.711 23.1873V14.7628C134.711 14.2012 134.39 14.0407 133.989 14.5221L127.972 21.2617C127.57 21.6628 127.25 22.5454 127.25 23.107C127.25 23.7489 127.57 24.5512 127.972 24.9524L130.218 27.1989C130.619 27.6001 130.94 27.921 130.94 27.921H131.02Z" fill="#54C5D3"/>
</g>
<g style="mix-blend-mode:multiply">
<path d="M136.316 33.2163C136.316 33.2163 136.637 33.5372 137.038 33.9384L139.285 36.1849C139.686 36.586 140.488 36.907 141.05 36.907H149.474C150.036 36.907 150.196 36.586 149.715 36.1849L142.975 30.1674C142.574 29.7662 141.692 29.4453 141.13 29.4453H141.05C140.488 29.4453 139.686 29.7662 139.285 30.1674L137.038 32.4139C136.637 32.8151 136.316 33.136 136.316 33.136V33.2163Z" fill="#54C5D3"/>
</g>
<g style="mix-blend-mode:multiply">
<path d="M131.02 38.4314C131.02 38.4314 130.699 38.7523 130.298 39.1535L128.052 41.4C127.651 41.8012 127.33 42.6035 127.33 43.1651V51.5896C127.33 52.1512 127.651 52.3117 128.052 51.8303L134.069 45.0907C134.47 44.6896 134.791 43.807 134.791 43.2454C134.791 42.6035 134.47 41.8012 134.069 41.4L131.823 39.1535L131.101 38.4314H131.02Z" fill="#54C5D3"/>
</g>
<g style="mix-blend-mode:multiply">
<path d="M125.806 33.2164C125.806 33.2164 125.485 32.8954 125.083 32.4943L122.837 30.2477C122.436 29.8466 121.633 29.5256 121.072 29.5256H112.647C112.086 29.5256 111.925 29.8466 112.407 30.2477L119.146 36.2652C119.547 36.6664 120.43 36.9873 120.992 36.9873H121.072C121.633 36.9873 122.436 36.6664 122.837 36.2652L125.083 34.0187C125.485 33.6175 125.806 33.2966 125.806 33.2966V33.2164Z" fill="#54C5D3"/>
</g>
<g style="mix-blend-mode:multiply">
<path d="M134.792 29.4457H139.044C139.605 29.4457 140.408 29.1247 140.809 28.7236L146.746 22.7863C147.147 22.3852 146.987 22.0642 146.425 22.1445L137.359 22.6259C136.797 22.6259 135.995 23.027 135.594 23.4282C135.193 23.9096 134.872 24.7119 134.872 25.2735V29.5259L134.792 29.4457Z" fill="#96C94A"/>
<path d="M138.964 29.5259H134.711V25.2735C134.711 24.7119 135.032 23.9096 135.434 23.4282C135.835 22.9468 136.637 22.6258 137.199 22.5456L146.265 22.0642C146.586 22.0642 146.746 22.0642 146.827 22.2247C146.827 22.3851 146.827 22.5456 146.586 22.7863L140.649 28.7235C140.248 29.1247 139.445 29.4456 138.803 29.4456L138.964 29.5259ZM134.792 29.4456H138.964C139.525 29.4456 140.328 29.1247 140.729 28.7235L146.666 22.7863C146.827 22.6258 146.907 22.4654 146.907 22.3049C146.907 22.2247 146.666 22.1444 146.425 22.1444L137.359 22.6258C136.797 22.6258 135.995 23.027 135.594 23.4282C135.193 23.9096 134.872 24.7119 134.872 25.2735V29.4456H134.792Z" fill="white"/>
</g>
<g style="mix-blend-mode:multiply">
<path d="M141.612 39.4747C141.612 38.9131 141.211 38.1107 140.809 37.7096C140.408 37.2282 139.606 36.9072 139.044 36.9072H134.792V41.0793C134.792 41.641 135.113 42.4433 135.514 42.8445L141.451 48.7817C141.852 49.1829 142.173 49.0224 142.093 48.4608L141.612 39.3944V39.4747Z" fill="#96C94A"/>
<path d="M141.852 49.1028C141.692 49.1028 141.612 49.0226 141.451 48.8621L135.514 42.9249C135.113 42.5237 134.792 41.7214 134.792 41.0795V36.8271H139.044C139.606 36.8271 140.408 37.1481 140.89 37.5492C141.291 38.0306 141.692 38.833 141.692 39.3946L142.173 48.4609C142.173 48.7819 142.173 48.9423 142.013 49.0226C142.013 49.0226 142.013 49.0226 141.933 49.0226L141.852 49.1028ZM134.792 36.9876V41.1597C134.792 41.7214 135.113 42.5237 135.514 42.9249L141.451 48.8621C141.612 49.0226 141.772 49.1028 141.933 49.1028C142.013 49.1028 142.093 48.8621 142.093 48.6214L141.612 39.5551C141.612 38.9934 141.211 38.1911 140.809 37.7899C140.408 37.3085 139.606 36.9876 139.044 36.9876H134.872H134.792Z" fill="white"/>
</g>
<g style="mix-blend-mode:multiply">
<path d="M127.33 36.9074C127.33 36.9074 126.848 36.9074 126.287 36.9074H123.078C122.516 36.9074 121.714 37.2283 121.312 37.6295L115.375 43.5667C114.974 43.9679 115.134 44.2888 115.696 44.2086L124.762 43.7272C125.324 43.7272 126.126 43.326 126.528 42.9249C126.929 42.4435 127.25 41.6411 127.25 41.0795V36.8271L127.33 36.9074Z" fill="#96C94A"/>
<path d="M115.616 44.2887C115.375 44.2887 115.215 44.2887 115.134 44.1282C115.134 43.9677 115.134 43.8073 115.375 43.5666L121.312 37.6293C121.713 37.2282 122.516 36.9072 123.158 36.9072H126.367C127.062 36.9072 127.41 36.9072 127.41 36.9072V41.1596C127.41 41.7212 127.089 42.5235 126.688 43.0049C126.287 43.4863 125.484 43.8073 124.923 43.8875L115.856 44.3689L115.616 44.2887ZM123.077 36.9875C122.516 36.9875 121.713 37.3084 121.312 37.7096L115.375 43.6468C115.215 43.8073 115.134 43.9677 115.134 44.1282C115.134 44.2084 115.295 44.2887 115.535 44.2887L124.602 43.8073C125.163 43.8073 125.966 43.4061 126.367 43.0049C126.768 42.5235 127.089 41.8014 127.089 41.2398V37.0677C127.009 37.0677 126.608 37.0677 126.046 37.0677H122.837L123.077 36.9875Z" fill="white"/>
</g>
<path d="M127.33 29.4456V25.1933C127.33 24.6316 127.009 23.8293 126.608 23.4282L120.671 17.4909C120.27 17.0897 119.949 17.2502 120.029 17.8118L120.51 26.8782C120.51 27.4398 120.912 28.2421 121.313 28.6433C121.714 29.1247 122.516 29.4456 123.078 29.4456H126.207C126.769 29.4456 127.25 29.4456 127.25 29.4456H127.33Z" fill="#96C94A"/>
<path d="M126.287 29.526H123.158C122.596 29.526 121.794 29.205 121.313 28.8039C120.911 28.3225 120.51 27.5202 120.51 26.9585L120.029 17.8922C120.029 17.5713 120.029 17.4108 120.189 17.3306C120.35 17.3306 120.51 17.3306 120.751 17.5713L126.688 23.5085C127.089 23.9097 127.41 24.712 127.41 25.3539V29.6062C127.41 29.6062 127.063 29.6062 126.367 29.6062L126.287 29.526ZM120.189 17.3306C120.109 17.3306 120.029 17.5713 120.029 17.812L120.51 26.8783C120.51 27.4399 120.911 28.2423 121.313 28.6434C121.714 29.1248 122.516 29.4457 123.078 29.4457H126.207C126.688 29.4457 127.089 29.4457 127.25 29.4457V25.2736C127.25 24.712 126.929 23.9097 126.528 23.5085L120.59 17.5713C120.43 17.4108 120.27 17.3306 120.189 17.3306Z" fill="white"/>
<g style="mix-blend-mode:multiply">
<path d="M131.021 38.5112L131.1 38.4314L131.021 38.5112Z" fill="white"/>
</g>
</svg>
