<svg width="130" height="56" viewBox="0 0 130 56" fill="none" xmlns="http://www.w3.org/2000/svg">
<path d="M14.8011 55.4934H9.53271V43.2004H14.8011C15.5537 43.2004 16.206 43.3008 16.7078 43.4513C17.5608 43.7524 18.2632 44.2541 18.8151 45.0067C19.2667 45.6089 19.5176 46.2611 19.6681 47.0138C19.8186 47.7664 19.919 48.4187 19.919 49.0709C19.919 50.7267 19.5678 52.0815 18.9155 53.2355C18.0123 54.7408 16.6576 55.5436 14.8011 55.5436V55.4934ZM16.7078 46.3113C16.3064 45.659 15.5537 45.3078 14.3495 45.3078H11.9913V53.3358H14.3495C15.5537 53.3358 16.4067 52.7337 16.8583 51.5295C17.1092 50.8773 17.2597 50.0745 17.2597 49.1713C17.2597 48.2681 17.059 46.9636 16.6576 46.3113H16.7078Z" fill="white"/>
<path d="M21.6755 43.2004H24.2345V55.4934H21.6755V43.2004Z" fill="white"/>
<path d="M35.2726 54.5404C34.3695 55.3934 33.1653 55.7948 31.7604 55.7948C30.3555 55.7948 28.5993 55.2429 27.5958 54.0889C26.5923 52.9348 26.0906 51.3794 26.0906 49.4226C26.0906 47.4657 26.6425 45.6092 27.7965 44.4552C28.8 43.4517 30.0544 42.95 31.6099 42.95C33.1653 42.95 35.1723 43.6524 36.1256 45.0071C36.6776 45.7598 36.9284 46.5124 36.9786 47.3152H34.4197C34.2691 46.7131 34.0183 46.2615 33.7674 45.9605C33.3158 45.4085 32.6134 45.1577 31.7102 45.1577C30.8071 45.1577 30.0544 45.5591 29.5025 46.2615C28.9506 47.0141 28.6997 48.0678 28.6997 49.4727C28.6997 50.8776 29.0007 51.8811 29.5527 52.5836C30.1046 53.2861 30.8572 53.5871 31.7102 53.5871C32.5632 53.5871 33.3158 53.2861 33.7674 52.684C34.0183 52.3829 34.2691 51.8811 34.4197 51.279H36.9786C36.7779 52.6338 36.1758 53.6875 35.2726 54.5404Z" fill="white"/>
<path d="M44.3549 55.7953C42.5987 55.7953 41.244 55.2936 40.3409 54.3402C39.0865 53.1862 38.4844 51.4803 38.4844 49.2725C38.4844 47.0648 39.0865 45.3589 40.3409 44.2048C41.244 43.2515 42.5987 42.7498 44.3549 42.7498C46.111 42.7498 47.4657 43.2515 48.3689 44.2048C49.6233 45.3087 50.2254 47.0147 50.2254 49.2725C50.2254 51.5304 49.6233 53.1862 48.3689 54.3402C47.4657 55.2936 46.111 55.7953 44.3549 55.7953ZM46.7633 52.5339C47.3654 51.7813 47.6664 50.7276 47.6664 49.3227C47.6664 47.9178 47.3654 46.8641 46.7633 46.1115C46.1612 45.3589 45.3584 45.0076 44.3549 45.0076C43.3514 45.0076 42.5486 45.3589 41.9465 46.1115C41.3444 46.8641 41.0433 47.9178 41.0433 49.3227C41.0433 50.7276 41.3444 51.7813 41.9465 52.5339C42.5486 53.2866 43.3514 53.6378 44.3549 53.6378C45.3584 53.6378 46.1612 53.2866 46.7633 52.5339Z" fill="white"/>
<path d="M54.54 55.4934H52.1316V43.2004H55.8446L58.0523 52.8341L60.26 43.2004H63.973V55.4934H61.5645V47.1643C61.5645 46.9134 61.5645 46.6124 61.5645 46.1608C61.5645 45.7092 61.5645 45.4082 61.5645 45.1573L59.2565 55.4432H56.7477L54.4397 45.1573C54.4397 45.4082 54.4397 45.7092 54.4397 46.1608C54.4397 46.6124 54.4397 46.9134 54.4397 47.1643V55.4934H54.54Z" fill="white"/>
<path d="M70.1453 43.2004H71.3495L75.0624 54.1386L78.7252 43.2004H79.9294L75.6645 55.4934H74.4102L70.1453 43.2004Z" fill="white"/>
<path d="M81.585 44.7057V43.2004H82.6888V44.7057H81.585ZM81.6351 55.4934V46.6625H82.6386V55.4934H81.6351Z" fill="white"/>
<path d="M85.9006 51.279C85.9006 51.7807 85.9508 52.2323 86.1013 52.6337C86.2017 53.0351 86.4024 53.4365 86.6532 53.7376C86.9041 54.0386 87.2052 54.2895 87.6066 54.4902C88.008 54.6909 88.4094 54.7913 88.9111 54.7913C89.4129 54.7913 90.1655 54.5906 90.6171 54.2393C91.1188 53.8881 91.4199 53.3864 91.5704 52.7341H92.7244C92.6241 53.1355 92.4234 53.5369 92.2227 53.8881C92.022 54.2393 91.7711 54.5404 91.4701 54.8414C91.169 55.0923 90.8178 55.293 90.3662 55.4435C89.9648 55.5941 89.463 55.6442 88.9111 55.6442C88.3592 55.6442 87.6066 55.5439 87.1048 55.293C86.6031 55.0421 86.1515 54.7411 85.8504 54.2895C85.4992 53.8881 85.2985 53.3864 85.0978 52.8344C84.8971 52.2825 84.8469 51.6804 84.8469 51.0281C84.8469 50.3758 84.9473 49.7737 85.148 49.2218C85.3487 48.6699 85.5996 48.1681 85.9508 47.7165C86.302 47.265 86.7034 46.9639 87.2052 46.713C87.7069 46.4622 88.2588 46.3618 88.9111 46.3618C90.1153 46.3618 91.0687 46.7632 91.7711 47.6162C92.4736 48.4692 92.8248 49.6734 92.7746 51.279H85.9006ZM91.6708 50.426C91.6708 49.9744 91.6206 49.573 91.4701 49.2218C91.3697 48.8204 91.169 48.5194 90.9181 48.2183C90.6672 47.9172 90.4164 47.7165 90.015 47.566C89.6637 47.4155 89.2623 47.3151 88.8108 47.3151C88.3592 47.3151 87.9578 47.4155 87.6066 47.566C87.2553 47.7165 86.9543 47.9674 86.7034 48.2685C86.4525 48.5695 86.2518 48.8706 86.1013 49.272C85.9508 49.6232 85.8504 50.0246 85.8003 50.4762H91.5704L91.6708 50.426Z" fill="white"/>
<path d="M102.207 54.0887L104.515 46.6125H105.569L102.709 55.4434H101.605L99.6981 48.0175L97.7413 55.4434H96.5371L93.8276 46.6125H94.8311L97.1392 54.1388L99.1964 46.6125H100.35L102.307 54.0887H102.207Z" fill="white"/>
<path d="M107.727 51.279C107.727 51.7807 107.777 52.2323 107.927 52.6337C108.028 53.0351 108.229 53.4365 108.479 53.7376C108.73 54.0386 109.031 54.2895 109.433 54.4902C109.834 54.6909 110.236 54.7913 110.737 54.7913C111.239 54.7913 111.992 54.5906 112.443 54.2393C112.945 53.8881 113.246 53.3864 113.397 52.7341H114.551C114.45 53.1355 114.25 53.5369 114.049 53.8881C113.848 54.2393 113.597 54.5404 113.296 54.8414C112.995 55.0923 112.644 55.293 112.192 55.4435C111.791 55.5941 111.289 55.6442 110.737 55.6442C110.185 55.6442 109.433 55.5439 108.931 55.293C108.429 55.0421 107.978 54.7411 107.677 54.2895C107.325 53.8881 107.125 53.3864 106.924 52.8344C106.723 52.2825 106.673 51.6804 106.673 51.0281C106.673 50.3758 106.773 49.7737 106.974 49.2218C107.175 48.6699 107.426 48.1681 107.777 47.7165C108.128 47.265 108.53 46.9639 109.031 46.713C109.533 46.4622 110.085 46.3618 110.737 46.3618C111.941 46.3618 112.895 46.7632 113.597 47.6162C114.3 48.4692 114.651 49.6734 114.601 51.279H107.727ZM113.497 50.426C113.497 49.9744 113.447 49.573 113.296 49.2218C113.196 48.8204 112.995 48.5194 112.744 48.2183C112.493 47.9172 112.243 47.7165 111.841 47.566C111.49 47.4155 111.089 47.3151 110.637 47.3151C110.185 47.3151 109.784 47.4155 109.433 47.566C109.082 47.7165 108.78 47.9674 108.53 48.2685C108.279 48.5695 108.078 48.8706 107.927 49.272C107.777 49.6232 107.677 50.0246 107.626 50.4762H113.397L113.497 50.426Z" fill="white"/>
<path d="M117.661 55.4947H116.658V46.6638H117.661V48.3196C117.962 47.6172 118.313 47.1154 118.765 46.8645C119.217 46.6137 119.819 46.4631 120.571 46.4631V47.567C119.969 47.567 119.518 47.6673 119.116 47.8179C118.765 48.0186 118.464 48.2694 118.213 48.6207C118.012 48.9719 117.862 49.3231 117.762 49.7747C117.661 50.2263 117.611 50.6779 117.611 51.1796V55.4947H117.661Z" fill="white"/>
<path d="M37.8992 21.7872C37.7126 20.9369 37.4015 20.1799 36.9659 19.5162C36.5512 18.8319 36.0327 18.2615 35.4105 17.8053C34.8091 17.349 34.1351 17.0068 33.3884 16.7787C32.6626 16.5298 31.8952 16.4054 31.0864 16.4054C29.6139 16.4054 28.3488 16.6854 27.2911 17.2453C26.2335 17.8053 25.3624 18.5519 24.678 19.4851C24.0144 20.3977 23.5166 21.4346 23.1848 22.596C22.8737 23.7574 22.7182 24.9499 22.7182 26.1735C22.7182 27.3764 22.8737 28.5689 23.1848 29.751C23.5166 30.9124 24.0144 31.9597 24.678 32.893C25.3624 33.8055 26.2335 34.5417 27.2911 35.1017C28.3488 35.6616 29.6139 35.9416 31.0864 35.9416C32.1234 35.9416 33.0566 35.755 33.8862 35.3817C34.7158 35.0084 35.4312 34.5003 36.0327 33.8573C36.6341 33.2144 37.1215 32.4678 37.4948 31.6175C37.8681 30.7465 38.1066 29.8132 38.2103 28.8177H40.3257C40.1805 30.1865 39.8591 31.4205 39.3613 32.5197C38.8636 33.6188 38.2207 34.5521 37.4326 35.3194C36.6445 36.0868 35.7112 36.6779 34.6328 37.0926C33.5751 37.5074 32.393 37.7148 31.0864 37.7148C29.3443 37.7148 27.8096 37.4037 26.4823 36.7816C25.1758 36.1386 24.087 35.2883 23.2159 34.2306C22.3449 33.1729 21.6916 31.9493 21.2561 30.5598C20.8205 29.1703 20.6028 27.7082 20.6028 26.1735C20.6028 24.6388 20.8205 23.1767 21.2561 21.7872C21.6916 20.3977 22.3449 19.174 23.2159 18.1164C24.087 17.0379 25.1758 16.1876 26.4823 15.5654C27.8096 14.9225 29.3443 14.6011 31.0864 14.6011C32.1441 14.6011 33.1707 14.7566 34.1662 15.0677C35.1824 15.3788 36.0949 15.8454 36.9037 16.4676C37.7333 17.069 38.4177 17.8156 38.9569 18.7074C39.5169 19.5992 39.8694 20.6258 40.0146 21.7872H37.8992Z" fill="white"/>
<path d="M2.12756 29.9688C2.10682 31.1094 2.28311 32.0634 2.65641 32.8308C3.02971 33.5981 3.53782 34.2099 4.18074 34.6662C4.84439 35.1224 5.6221 35.4543 6.51389 35.6616C7.40567 35.8483 8.35967 35.9416 9.37588 35.9416C9.95658 35.9416 10.5891 35.8587 11.2735 35.6928C11.9579 35.5268 12.5904 35.2676 13.1711 34.915C13.7726 34.5417 14.2703 34.0751 14.6644 33.5151C15.0584 32.9345 15.2554 32.2397 15.2554 31.4309C15.2554 30.8087 15.1102 30.2695 14.8199 29.8132C14.5503 29.357 14.1874 28.9733 13.7311 28.6622C13.2956 28.3511 12.8082 28.1022 12.269 27.9156C11.7298 27.7082 11.2009 27.5423 10.6824 27.4178L5.73617 26.2046C5.09326 26.0387 4.46071 25.8313 3.83854 25.5824C3.23711 25.3336 2.70826 25.0017 2.252 24.587C1.79574 24.1722 1.42243 23.6641 1.13209 23.0626C0.862477 22.4612 0.727673 21.725 0.727673 20.8539C0.727673 20.3147 0.831368 19.6822 1.03876 18.9563C1.24615 18.2304 1.62982 17.546 2.18978 16.9031C2.77048 16.2602 3.55856 15.721 4.55404 15.2855C5.54952 14.8292 6.82497 14.6011 8.38041 14.6011C9.47958 14.6011 10.5269 14.7462 11.5224 15.0366C12.5179 15.3269 13.3889 15.7625 14.1355 16.3432C14.8821 16.9239 15.4732 17.6497 15.9087 18.5208C16.365 19.3711 16.5931 20.3665 16.5931 21.5072H14.4777C14.4362 20.6569 14.2392 19.9207 13.8866 19.2985C13.5548 18.6556 13.1089 18.1267 12.549 17.7119C12.0098 17.2764 11.3772 16.955 10.6513 16.7476C9.94621 16.5194 9.1996 16.4054 8.41152 16.4054C7.68565 16.4054 6.98052 16.4883 6.29613 16.6542C5.63247 16.7994 5.04141 17.0483 4.52293 17.4009C4.02519 17.7327 3.62078 18.1786 3.30969 18.7385C2.99861 19.2985 2.84306 19.9932 2.84306 20.8228C2.84306 21.3413 2.92602 21.7975 3.09193 22.1916C3.27858 22.5649 3.52745 22.8863 3.83854 23.156C4.14963 23.4256 4.50219 23.6433 4.89623 23.8092C5.31102 23.9752 5.74654 24.11 6.2028 24.2137L11.6157 25.5513C12.4038 25.7587 13.14 26.018 13.8244 26.329C14.5296 26.6194 15.1414 26.9927 15.6598 27.449C16.1991 27.8845 16.6138 28.4237 16.9042 29.0666C17.2153 29.7095 17.3708 30.4872 17.3708 31.3998C17.3708 31.6486 17.3397 31.9804 17.2775 32.3952C17.236 32.81 17.1116 33.2559 16.9042 33.7329C16.7175 34.1892 16.4376 34.6558 16.0642 35.1328C15.7117 35.6098 15.2139 36.0453 14.571 36.4394C13.9489 36.8127 13.1711 37.1134 12.2379 37.3415C11.3046 37.5904 10.1847 37.7148 8.87815 37.7148C7.57158 37.7148 6.35834 37.5696 5.23843 37.2793C4.11852 36.9682 3.16452 36.5016 2.37643 35.8794C1.58835 35.2572 0.976542 34.4588 0.54102 33.484C0.126238 32.5093 -0.0500444 31.3375 0.012173 29.9688H2.12756Z" fill="white"/>
<path d="M124.975 9.63475H127.542L126.282 6.29114L124.975 9.63475ZM125.962 5.66992H126.656L129.214 12.1927H128.547L127.753 10.1646H124.784L123.998 12.1927H123.34L125.962 5.66992Z" fill="white"/>
<path d="M118.633 5.66992H123.795V6.19978H121.52V12.1927H120.899V6.19978H118.633V5.66992Z" fill="white"/>
<path d="M113.637 5.66992H118.141V6.19978H114.259V8.55676H117.895V9.08662H114.259V11.6628H118.187V12.1927H113.637V5.66992Z" fill="white"/>
<path d="M107.892 8.52935H110.029C110.279 8.52935 110.495 8.50194 110.678 8.44713C110.861 8.38623 111.013 8.30705 111.135 8.20961C111.257 8.10607 111.348 7.98731 111.409 7.85332C111.47 7.71933 111.5 7.57621 111.5 7.42395C111.5 6.60784 111.01 6.19978 110.029 6.19978H107.892V8.52935ZM107.271 5.66992H110.029C110.304 5.66992 110.565 5.69733 110.815 5.75214C111.071 5.80086 111.293 5.88917 111.482 6.01707C111.677 6.13888 111.832 6.30332 111.948 6.51039C112.064 6.71137 112.121 6.96413 112.121 7.26864C112.121 7.43917 112.094 7.60666 112.039 7.7711C111.984 7.92945 111.905 8.07562 111.802 8.20961C111.704 8.3375 111.586 8.44713 111.445 8.53849C111.311 8.62984 111.159 8.69379 110.989 8.73033V8.7486C111.409 8.80342 111.744 8.97699 111.994 9.26933C112.243 9.55558 112.368 9.91186 112.368 10.3382C112.368 10.4417 112.359 10.5605 112.341 10.6945C112.322 10.8224 112.286 10.9564 112.231 11.0964C112.176 11.2304 112.097 11.3644 111.994 11.4984C111.89 11.6324 111.75 11.7512 111.573 11.8547C111.403 11.9521 111.19 12.0344 110.934 12.1014C110.684 12.1623 110.383 12.1927 110.029 12.1927H107.271V5.66992ZM107.892 11.6628H110.029C110.261 11.6628 110.48 11.6446 110.687 11.608C110.894 11.5654 111.077 11.4923 111.235 11.3888C111.394 11.2852 111.519 11.1482 111.61 10.9777C111.701 10.8011 111.747 10.5818 111.747 10.3199C111.747 9.89968 111.598 9.58603 111.299 9.37896C111.007 9.16579 110.584 9.05921 110.029 9.05921H107.892V11.6628Z" fill="white"/>
<path fill-rule="evenodd" clip-rule="evenodd" d="M66.0269 10.3863C66.0269 14.4662 69.3227 17.762 73.4026 17.762C77.4826 17.762 80.7784 14.4662 80.7784 10.3863C80.7784 6.30633 77.4826 3.0105 73.4026 3.0105C69.3227 3.0105 66.0269 6.30633 66.0269 10.3863ZM67.3314 10.3863C67.3314 7.04026 70.0566 4.31506 73.4026 4.31506C76.7486 4.31506 79.4738 7.04026 79.4738 10.3863C79.4738 13.7323 76.7486 16.4575 73.4026 16.4575C70.0566 16.4575 67.3314 13.7323 67.3314 10.3863ZM67.9414 14.8891C66.933 13.6667 66.3279 12.0985 66.3279 10.3863C66.3279 6.47259 69.489 3.31155 73.4026 3.31155C75.5123 3.31155 77.4033 4.23011 78.6984 5.68997C77.4033 4.2303 75.5125 3.31188 73.4029 3.31188C69.4892 3.31188 66.3282 6.47292 66.3282 10.3866C66.3282 12.0987 66.9331 13.6667 67.9414 14.8891ZM78.3053 6.32109C79.2226 7.42528 79.7749 8.84279 79.7749 10.3863C79.7749 13.8985 76.9149 16.7585 73.4026 16.7585C71.4901 16.7585 69.771 15.9105 68.6017 14.571C69.771 15.9107 71.4902 16.7589 73.4029 16.7589C76.9152 16.7589 79.7752 13.8989 79.7752 10.3866C79.7752 8.84296 79.2227 7.42532 78.3053 6.32109Z" fill="#54C6D4"/>
<path d="M76.5134 14.6514H70.2415V37.5815H76.5134V14.6514Z" fill="white"/>
<path fill-rule="evenodd" clip-rule="evenodd" d="M69.7397 14.1497V38.1334H77.0653V14.1497H69.7397ZM70.7934 15.2033H76.0618V37.0798H70.7934V15.2033Z" fill="#54C5D3"/>
<path d="M44.4018 21.7256C44.5021 20.2706 44.8534 19.0162 45.5056 18.0628C46.1579 17.1095 46.9607 16.3067 47.9642 15.7046C48.9677 15.1025 50.1218 14.7011 51.3762 14.4502C52.6305 14.1994 53.8849 14.0488 55.1895 14.0488C56.494 14.0488 57.4975 14.1492 58.7017 14.2997C59.906 14.4502 60.9596 14.8015 61.913 15.253C62.8663 15.7046 63.6691 16.4071 64.3214 17.2099C64.9235 18.0628 65.2747 19.1667 65.2747 20.5716V32.5133C65.2747 33.567 65.3249 34.5203 65.4754 35.4737C65.5758 36.427 65.7765 37.1294 66.0775 37.581H59.7053C59.6049 37.2298 59.5046 36.8786 59.4042 36.4772C59.354 36.1259 59.2537 35.7245 59.2537 35.3231C58.2502 36.3768 57.046 37.0793 55.6912 37.4807C54.3365 37.8821 52.9316 38.0828 51.5267 38.0828C50.1218 38.0828 49.4193 37.9323 48.466 37.6814C47.5127 37.4305 46.7099 36.9789 46.0074 36.427C45.3049 35.8751 44.753 35.1726 44.3516 34.3196C43.9502 33.4667 43.7495 32.4632 43.7495 31.2589C43.7495 30.0547 44.0004 28.9007 44.452 28.0477C44.9035 27.1947 45.5056 26.5425 46.2081 26.0407C46.9106 25.539 47.7635 25.1376 48.6667 24.8867C49.62 24.6358 50.5232 24.4351 51.4765 24.2846C52.4298 24.1341 53.333 24.0337 54.2863 23.9334C55.1895 23.833 55.9923 23.7327 56.7449 23.532C57.4474 23.3313 57.9993 23.0804 58.4509 22.7793C58.8523 22.4281 59.053 21.9263 59.0028 21.2741C59.0028 20.5716 58.9024 20.0699 58.6516 19.6685C58.4509 19.2671 58.1498 18.966 57.7484 18.7151C57.3972 18.5144 56.9456 18.3639 56.4439 18.2635C55.9421 18.2134 55.4404 18.1632 54.8884 18.1632C53.634 18.1632 52.6807 18.4141 51.9783 18.966C51.2758 19.5179 50.8744 20.3709 50.7239 21.6253H44.452L44.4018 21.7256ZM58.9024 26.3919C58.6516 26.6428 58.3003 26.7933 57.8989 26.9439C57.4975 27.0944 57.0961 27.1947 56.5944 27.2951C56.1428 27.3954 55.6411 27.4456 55.1393 27.4958C54.6375 27.546 54.1358 27.6463 53.634 27.6965C53.1825 27.7969 52.6807 27.8972 52.2291 28.0477C51.7776 28.1983 51.3762 28.399 51.0249 28.6498C50.6737 28.9007 50.4228 29.2018 50.2221 29.6032C50.0214 30.0046 49.9211 30.4561 49.9211 31.0582C49.9211 31.6603 50.0214 32.1119 50.2221 32.4632C50.4228 32.8646 50.7239 33.1656 51.0751 33.3663C51.4263 33.567 51.8277 33.7677 52.3295 33.8179C52.7811 33.9182 53.2828 33.9684 53.7846 33.9684C55.0389 33.9684 55.9923 33.7677 56.6446 33.3663C57.347 32.9649 57.8488 32.4632 58.1498 31.861C58.4509 31.3091 58.6516 30.707 58.7519 30.1049C58.8021 29.5028 58.8523 29.0512 58.8523 28.7V26.3418L58.9024 26.3919Z" fill="white"/>
<path d="M97.7881 34.5207C97.0355 35.7751 96.0822 36.6782 94.878 37.18C93.6738 37.7319 92.319 37.9828 90.8138 37.9828C89.3085 37.9828 87.6025 37.6316 86.298 36.9793C84.9934 36.327 83.9398 35.4239 83.0868 34.2698C82.2338 33.1158 81.6317 31.8112 81.1801 30.3562C80.7285 28.9011 80.5278 27.3456 80.5278 25.74C80.5278 24.1344 80.7285 22.7295 81.1801 21.2744C81.6317 19.8193 82.2338 18.565 83.0868 17.4611C83.9398 16.3573 84.9934 15.5043 86.2478 14.8018C87.5022 14.1495 89.0075 13.7983 90.6632 13.7983C92.319 13.7983 93.3225 14.0994 94.5267 14.6513C95.7309 15.2032 96.7344 16.0562 97.4369 17.2102H97.5372V5.66992H103.809V37.3305H97.8383V34.4203H97.738L97.7881 34.5207ZM97.5372 23.1811C97.3365 22.3281 97.0355 21.5253 96.6341 20.873C96.1825 20.2207 95.6306 19.6688 94.9783 19.2674C94.2759 18.866 93.4229 18.6653 92.4194 18.6653C91.4159 18.6653 90.5127 18.866 89.8103 19.2674C89.1078 19.6688 88.5559 20.2207 88.1043 20.9232C87.6527 21.6257 87.3517 22.3783 87.151 23.2313C86.9503 24.0842 86.8499 24.9874 86.8499 25.9407C86.8499 26.8941 86.9503 27.6969 87.151 28.6C87.3517 29.5032 87.7029 30.2558 88.1545 30.9583C88.606 31.6607 89.2082 32.2126 89.8604 32.6642C90.5629 33.1158 91.3657 33.3165 92.3692 33.3165C93.3727 33.3165 94.2759 33.1158 94.9783 32.7144C95.6808 32.313 96.2327 31.7611 96.6341 31.0586C97.0355 30.3562 97.3365 29.5533 97.5372 28.7004C97.7379 27.7972 97.7881 26.8941 97.7881 25.9407C97.7881 24.9874 97.6878 24.0842 97.5372 23.2313V23.1811Z" fill="white"/>
<path d="M108.324 21.7256C108.424 20.2706 108.776 19.0162 109.428 18.0628C110.08 17.1095 110.883 16.3067 111.887 15.7046C112.89 15.1025 114.044 14.7011 115.299 14.4502C116.553 14.1994 117.807 14.0488 119.112 14.0488C120.416 14.0488 121.42 14.1492 122.624 14.2997C123.828 14.4502 124.882 14.8015 125.835 15.253C126.789 15.7046 127.591 16.4071 128.244 17.2099C128.846 18.0628 129.197 19.1667 129.197 20.5716V32.5133C129.197 33.567 129.247 34.5203 129.398 35.4737C129.498 36.427 129.699 37.1294 130 37.581H123.628C123.527 37.2298 123.427 36.8786 123.327 36.4772C123.276 36.1259 123.176 35.7245 123.176 35.3231C122.173 36.3768 120.968 37.0793 119.614 37.4807C118.259 37.8821 116.854 38.0828 115.449 38.0828C114.044 38.0828 113.342 37.9323 112.388 37.6814C111.435 37.4305 110.632 36.9789 109.93 36.427C109.227 35.8751 108.675 35.1726 108.274 34.3196C107.873 33.4667 107.672 32.4632 107.672 31.2589C107.672 30.0547 107.923 28.9007 108.374 28.0477C108.826 27.1947 109.428 26.5425 110.13 26.0407C110.833 25.539 111.686 25.1376 112.589 24.8867C113.542 24.6358 114.446 24.4351 115.399 24.2846C116.352 24.1341 117.255 24.0337 118.209 23.9334C119.112 23.833 119.915 23.7327 120.667 23.532C121.37 23.3313 121.922 23.0804 122.373 22.7793C122.775 22.4281 122.975 21.9263 122.925 21.2741C122.925 20.5716 122.825 20.0699 122.574 19.6685C122.373 19.2671 122.072 18.966 121.671 18.7151C121.32 18.5144 120.868 18.3639 120.366 18.2635C119.864 18.2134 119.363 18.1632 118.811 18.1632C117.556 18.1632 116.603 18.4141 115.901 18.966C115.198 19.5179 114.797 20.3709 114.646 21.6253H108.374L108.324 21.7256ZM122.875 26.3919C122.624 26.6428 122.273 26.7933 121.871 26.9439C121.47 27.0944 121.069 27.1947 120.567 27.2951C120.115 27.3954 119.614 27.4456 119.112 27.4958C118.61 27.546 118.108 27.6463 117.607 27.6965C117.155 27.7969 116.653 27.8972 116.202 28.0477C115.75 28.1983 115.349 28.399 114.997 28.6498C114.646 28.9007 114.395 29.2018 114.195 29.6032C113.994 30.0046 113.894 30.4561 113.894 31.0582C113.894 31.6603 113.994 32.1119 114.195 32.4632C114.395 32.8646 114.696 33.1656 115.048 33.3663C115.399 33.567 115.8 33.7677 116.302 33.8179C116.754 33.9182 117.255 33.9684 117.757 33.9684C119.011 33.9684 119.965 33.7677 120.617 33.3663C121.32 32.9649 121.821 32.4632 122.122 31.861C122.423 31.3091 122.624 30.707 122.724 30.1049C122.775 29.5028 122.825 29.0512 122.825 28.7V26.3418L122.875 26.3919Z" fill="white"/>
<path d="M73.4018 19.2166C68.5348 19.2166 64.6211 15.2528 64.6211 10.4359C64.6211 5.61912 68.5849 1.65527 73.4018 1.65527C78.2186 1.65527 82.1824 5.61912 82.1824 10.4359C82.1824 15.2528 78.2186 19.2166 73.4018 19.2166ZM73.4018 2.15703C68.8358 2.15703 65.173 5.87 65.173 10.3858C65.173 14.9016 68.886 18.6145 73.4018 18.6145C77.9175 18.6145 81.6305 14.9016 81.6305 10.3858C81.6305 5.87 77.9175 2.15703 73.4018 2.15703Z" fill="#96C94A"/>
<path fill-rule="evenodd" clip-rule="evenodd" d="M73.4033 20.5719C73.3596 20.5719 73.316 20.5716 73.2725 20.571C67.7625 20.5002 63.2679 15.9623 63.2678 10.4365C63.2678 5.85159 66.3621 1.94678 70.5633 0.709458C66.3616 1.94643 63.2668 5.85151 63.2668 10.4368C63.2668 16.0062 67.8327 20.5722 73.4022 20.5722C74.32 20.5722 75.2105 20.4482 76.0579 20.2161C75.2625 20.4339 74.429 20.5564 73.5707 20.5705C73.515 20.5714 73.4592 20.5719 73.4033 20.5719ZM62.9668 10.4365C62.9668 16.1894 67.6503 20.8729 73.4033 20.8729C79.1562 20.8729 83.8397 16.1894 83.8397 10.4365C83.8397 4.68352 79.1562 0 73.4033 0C67.6503 0 62.9668 4.68352 62.9668 10.4365ZM63.4184 10.4365C63.4184 4.95013 67.9169 0.451578 73.4033 0.451578C78.8896 0.451578 83.3881 4.95013 83.3881 10.4365C83.3881 15.9228 78.8896 20.4213 73.4033 20.4213C67.9169 20.4213 63.4184 15.9228 63.4184 10.4365ZM70.507 0.56591C71.4261 0.295603 72.3981 0.150526 73.4033 0.150526C79.0731 0.150526 83.6892 4.76665 83.6892 10.4365C83.6892 15.0239 80.6673 18.9215 76.5105 20.2425C80.6668 18.9212 83.6881 15.0238 83.6881 10.4368C83.6881 4.76697 79.072 0.150843 73.4022 0.150843C72.3974 0.150843 71.4258 0.295807 70.507 0.56591Z" fill="#96C94A"/>
</svg>
